<svg xmlns="http://www.w3.org/2000/svg" width="261.563" height="229.291" viewBox="0 0 261.563 229.291">
  <g id="Gruppe_741" data-name="Gruppe 741" transform="translate(-1010 -328.492)">
    <rect id="Rechteck_270" data-name="Rechteck 270" width="261.563" height="229.291" rx="3" transform="translate(1010 328.492)" fill="#f1f1f1"/>
    <path id="Pfad_1146" data-name="Pfad 1146" d="M33.719,0A7.781,7.781,0,0,0,41.5-7.781V-54.469a7.781,7.781,0,0,0-7.781-7.781H-33.719A7.781,7.781,0,0,0-41.5-54.469V-7.781A7.781,7.781,0,0,0-33.719,0ZM-23.344-53.172a9.078,9.078,0,0,1,9.078,9.078,9.078,9.078,0,0,1-9.078,9.078,9.078,9.078,0,0,1-9.078-9.078A9.078,9.078,0,0,1-23.344-53.172Zm-7.781,42.8v-7.781l11.593-11.593a1.945,1.945,0,0,1,2.751,0l9,9L14.187-42.718a1.945,1.945,0,0,1,2.751,0L31.125-28.531v18.156Z" transform="translate(1140.662 474.809)" fill="#fff"/>
  </g>
</svg>
